<?xml version="1.0" encoding="UTF-8" standalone="no"?>
<!DOCTYPE svg PUBLIC "-//W3C//DTD SVG 1.1//EN" "http://www.w3.org/Graphics/SVG/1.1/DTD/svg11.dtd">
<svg version="1.1" xmlns="http://www.w3.org/2000/svg" xmlns:xlink="http://www.w3.org/1999/xlink" preserveAspectRatio="xMidYMid meet" viewBox="473.3093214756 172.266702335 221.4599945635 174.11999574699985" width="217.46" height="170.12"><defs><path d="M608.62 222.61C608.6 222.61 608.58 222.61 608.57 222.61C608.57 222.28 608.62 221.95 608.62 221.61C608.62 194.91 586.98 173.27 560.28 173.27C533.58 173.27 511.94 194.91 511.94 221.61C511.94 221.64 511.94 221.67 511.94 221.71C491 222.68 474.31 239.91 474.31 261.09C474.31 282.9 491.99 300.58 513.79 300.58C523.28 300.58 599.14 300.58 608.62 300.58C630.15 300.58 647.6 283.13 647.6 261.6C647.6 240.07 630.15 222.61 608.62 222.61" id="ahPoWX4Zq"></path><path d="M652.79 265.41C652.77 265.41 652.75 265.43 652.74 265.43C652.74 265.08 652.79 264.76 652.79 264.41C652.79 237.72 631.14 216.08 604.45 216.08C577.75 216.08 556.11 237.72 556.11 264.41C556.11 264.45 556.11 264.48 556.11 264.51C535.17 265.48 518.48 282.72 518.48 303.9C518.48 325.71 536.15 343.39 557.96 343.39C567.44 343.39 643.3 343.39 652.79 343.39C674.32 343.39 691.77 325.93 691.77 304.4C691.77 282.87 674.32 265.41 652.79 265.41" id="b16HGtfY7g"></path></defs><g><g><use xlink:href="#ahPoWX4Zq" opacity="1" fill="#8dd9ee" fill-opacity="1"></use><g><use xlink:href="#ahPoWX4Zq" opacity="1" fill-opacity="0" stroke="#000000" stroke-width="1" stroke-opacity="0"></use></g></g><g><use xlink:href="#b16HGtfY7g" opacity="1" fill="#62c6ef" fill-opacity="1"></use><g><use xlink:href="#b16HGtfY7g" opacity="1" fill-opacity="0" stroke="#000000" stroke-width="1" stroke-opacity="0"></use></g></g></g></svg>