<?xml version="1.0" encoding="UTF-8" standalone="no"?>
<!DOCTYPE svg PUBLIC "-//W3C//DTD SVG 1.1//EN" "http://www.w3.org/Graphics/SVG/1.1/DTD/svg11.dtd">
<svg version="1.1" xmlns="http://www.w3.org/2000/svg" xmlns:xlink="http://www.w3.org/1999/xlink" preserveAspectRatio="xMidYMid meet" viewBox="816.3973128984001 178.68003550799972 237.03599417409987 180.01732893290023" width="233.04" height="176.02"><defs><path d="M940.35 262.24C940.35 284.24 922.51 302.09 900.5 302.09C878.5 302.09 860.65 284.24 860.65 262.24C860.65 240.23 878.5 222.39 900.5 222.39C922.51 222.39 940.35 240.23 940.35 262.24" id="a1MxfEfSgv"></path><path d="M900.51 211.59C897.73 211.59 895.48 209.33 895.48 206.56C895.48 204.37 895.48 186.89 895.48 184.71C895.48 181.93 897.73 179.68 900.51 179.68C903.28 179.68 905.53 181.93 905.53 184.71C905.53 186.89 905.53 204.37 905.53 206.56C905.53 209.33 903.28 211.59 900.51 211.59" id="aRNpgVN1B"></path><path d="M844.27 267.81C831.16 267.81 823.88 267.81 822.42 267.81C819.65 267.81 817.4 265.56 817.4 262.79C817.4 260.01 819.65 257.76 822.42 257.76C824.61 257.76 842.09 257.76 844.27 257.76C847.05 257.76 849.3 260.01 849.3 262.79C849.3 265.56 847.05 267.81 844.27 267.81" id="g5FLjSQOhJ"></path><path d="M860.75 228.05C859.46 228.05 858.17 227.56 857.19 226.57C855.65 225.03 843.29 212.67 841.74 211.12C839.78 209.16 839.78 205.99 841.74 204.03C843.7 202.07 846.88 202.07 848.84 204.03C850.39 205.57 862.75 217.93 864.3 219.48C866.26 221.44 866.26 224.61 864.3 226.57C863.31 227.56 862.03 228.05 860.75 228.05" id="bVOPaGjBm"></path><path d="M845.29 323.02C844.01 323.02 842.72 322.53 841.74 321.55C839.78 319.59 839.78 316.41 841.74 314.45C843.29 312.91 855.65 300.54 857.19 299C859.16 297.04 862.33 297.04 864.3 299C866.26 300.96 866.26 304.14 864.3 306.1C862.75 307.65 850.39 320.01 848.84 321.55C847.86 322.53 846.58 323.02 845.29 323.02" id="dfFM9WIUN"></path><path d="M940.27 228.05C938.98 228.05 937.69 227.56 936.71 226.57C934.75 224.61 934.75 221.44 936.71 219.48C938.26 217.93 950.62 205.57 952.17 204.03C954.12 202.07 957.31 202.07 959.27 204.03C961.23 205.99 961.23 209.16 959.27 211.12C957.72 212.67 945.36 225.03 943.82 226.57C942.84 227.56 941.55 228.05 940.27 228.05" id="bVML92hf"></path><path d="M1011.45 277.73C1011.43 277.73 1011.42 277.73 1011.4 277.73C1011.41 277.39 1011.45 277.07 1011.45 276.73C1011.45 250.03 989.81 228.39 963.11 228.39C936.41 228.39 914.77 250.03 914.77 276.73C914.77 276.76 914.78 276.79 914.78 276.82C893.83 277.79 877.14 295.03 877.14 316.21C877.14 338.02 894.82 355.7 916.63 355.7C926.11 355.7 1001.97 355.7 1011.45 355.7C1032.98 355.7 1050.43 338.24 1050.43 316.71C1050.43 295.18 1032.98 277.73 1011.45 277.73" id="fn1RVHIPd"></path></defs><g><g><use xlink:href="#a1MxfEfSgv" opacity="1" fill="#f8a62c" fill-opacity="1"></use><g><use xlink:href="#a1MxfEfSgv" opacity="1" fill-opacity="0" stroke="#000000" stroke-width="1" stroke-opacity="0"></use></g></g><g><use xlink:href="#aRNpgVN1B" opacity="1" fill="#f8a62c" fill-opacity="1"></use><g><use xlink:href="#aRNpgVN1B" opacity="1" fill-opacity="0" stroke="#000000" stroke-width="1" stroke-opacity="0"></use></g></g><g><use xlink:href="#g5FLjSQOhJ" opacity="1" fill="#f8a62c" fill-opacity="1"></use><g><use xlink:href="#g5FLjSQOhJ" opacity="1" fill-opacity="0" stroke="#000000" stroke-width="1" stroke-opacity="0"></use></g></g><g><use xlink:href="#bVOPaGjBm" opacity="1" fill="#f8a62c" fill-opacity="1"></use><g><use xlink:href="#bVOPaGjBm" opacity="1" fill-opacity="0" stroke="#000000" stroke-width="1" stroke-opacity="0"></use></g></g><g><use xlink:href="#dfFM9WIUN" opacity="1" fill="#f8a62c" fill-opacity="1"></use><g><use xlink:href="#dfFM9WIUN" opacity="1" fill-opacity="0" stroke="#000000" stroke-width="1" stroke-opacity="0"></use></g></g><g><use xlink:href="#bVML92hf" opacity="1" fill="#f8a62c" fill-opacity="1"></use><g><use xlink:href="#bVML92hf" opacity="1" fill-opacity="0" stroke="#000000" stroke-width="1" stroke-opacity="0"></use></g></g><g><use xlink:href="#fn1RVHIPd" opacity="1" fill="#62c6ef" fill-opacity="1"></use><g><use xlink:href="#fn1RVHIPd" opacity="1" fill-opacity="0" stroke="#000000" stroke-width="1" stroke-opacity="0"></use></g></g></g></svg>