<?xml version="1.0" encoding="UTF-8" standalone="no"?>
<!DOCTYPE svg PUBLIC "-//W3C//DTD SVG 1.1//EN" "http://www.w3.org/Graphics/SVG/1.1/DTD/svg11.dtd">
<svg version="1.1" xmlns="http://www.w3.org/2000/svg" xmlns:xlink="http://www.w3.org/1999/xlink" preserveAspectRatio="xMidYMid meet" viewBox="517.4773203713999 534.4760266130999 177.29199566770012 173.65066242540013" width="173.29" height="169.65"><defs><path d="M652.79 584.82C652.77 584.82 652.75 584.82 652.74 584.82C652.74 584.48 652.79 584.15 652.79 583.82C652.79 557.12 631.14 535.48 604.45 535.48C577.75 535.48 556.11 557.12 556.11 583.82C556.11 583.85 556.11 583.88 556.11 583.91C535.17 584.88 518.48 602.12 518.48 623.3C518.48 645.11 536.15 662.78 557.96 662.78C567.44 662.78 643.3 662.78 652.79 662.78C674.32 662.78 691.77 645.33 691.77 623.8C691.77 602.27 674.32 584.82 652.79 584.82" id="b1aoPZuE9L"></path><path d="M548.23 641.13C546.38 641.13 544.88 639.63 544.88 637.78C544.88 635.55 544.88 617.72 544.88 615.49C544.88 613.64 546.38 612.14 548.23 612.14C550.08 612.14 551.58 613.64 551.58 615.49C551.58 617.72 551.58 635.55 551.58 637.78C551.58 639.63 550.08 641.13 548.23 641.13" id="e8z0VYS5"></path><path d="M548.23 705.13C546.38 705.13 544.88 703.63 544.88 701.78C544.88 697.2 544.88 660.6 544.88 656.02C544.88 654.17 546.38 652.67 548.23 652.67C550.08 652.67 551.58 654.17 551.58 656.02C551.58 660.6 551.58 697.2 551.58 701.78C551.58 703.63 550.08 705.13 548.23 705.13" id="dRpmUWpv"></path><path d="M576.68 628.46C574.83 628.46 573.33 626.96 573.33 625.11C573.33 621.86 573.33 595.86 573.33 592.61C573.33 590.76 574.83 589.26 576.68 589.26C578.53 589.26 580.03 590.76 580.03 592.61C580.03 595.86 580.03 621.86 580.03 625.11C580.03 626.96 578.53 628.46 576.68 628.46" id="c3LKX2aXwz"></path><path d="M576.68 665.79C574.83 665.79 573.33 664.29 573.33 662.44C573.33 660.32 573.33 643.39 573.33 641.27C573.33 639.42 574.83 637.92 576.68 637.92C578.53 637.92 580.03 639.42 580.03 641.27C580.03 643.39 580.03 660.32 580.03 662.44C580.03 664.29 578.53 665.79 576.68 665.79" id="b9Hwr3oCh"></path><path d="M576.68 705.13C574.83 705.13 573.33 703.63 573.33 701.78C573.33 700.08 573.33 686.54 573.33 684.85C573.33 683 574.83 681.5 576.68 681.5C578.53 681.5 580.03 683 580.03 684.85C580.03 686.54 580.03 700.08 580.03 701.78C580.03 703.63 578.53 705.13 576.68 705.13" id="d7EogCq2nW"></path><path d="M605.12 705.13C603.27 705.13 601.77 703.63 601.77 701.78C601.77 697.2 601.77 660.6 601.77 656.02C601.77 654.17 603.27 652.67 605.12 652.67C606.97 652.67 608.47 654.17 608.47 656.02C608.47 660.6 608.47 697.2 608.47 701.78C608.47 703.63 606.97 705.13 605.12 705.13" id="ccaOKDW2n"></path><path d="M633.57 705.13C631.72 705.13 630.22 703.63 630.22 701.78C630.22 700.08 630.22 686.54 630.22 684.85C630.22 683 631.72 681.5 633.57 681.5C635.42 681.5 636.92 683 636.92 684.85C636.92 686.54 636.92 700.08 636.92 701.78C636.92 703.63 635.42 705.13 633.57 705.13" id="d2sTqXWjcn"></path><path d="M662.02 705.13C660.17 705.13 658.67 703.63 658.67 701.78C658.67 698.28 658.67 670.26 658.67 666.76C658.67 664.91 660.17 663.41 662.02 663.41C663.87 663.41 665.37 664.91 665.37 666.76C665.37 670.26 665.37 698.28 665.37 701.78C665.37 703.63 663.87 705.13 662.02 705.13" id="b7a5a1twQ"></path><path d="M662.02 647.49C660.17 647.49 658.67 645.99 658.67 644.14C658.67 642.55 658.67 629.86 658.67 628.27C658.67 626.42 660.17 624.92 662.02 624.92C663.87 624.92 665.37 626.42 665.37 628.27C665.37 629.86 665.37 642.55 665.37 644.14C665.37 645.99 663.87 647.49 662.02 647.49" id="eyMpfRjzK"></path><path d="M633.57 674.25C631.72 674.25 630.22 672.75 630.22 670.9C630.22 664.09 630.22 609.57 630.22 602.76C630.22 600.91 631.72 599.41 633.57 599.41C635.42 599.41 636.92 600.91 636.92 602.76C636.92 609.57 636.92 664.09 636.92 670.9C636.92 672.75 635.42 674.25 633.57 674.25" id="bjdsEHsnH"></path><path d="M605.12 640.02C603.27 640.02 601.77 638.52 601.77 636.67C601.77 634.66 601.77 618.6 601.77 616.59C601.77 614.74 603.27 613.25 605.12 613.25C606.97 613.25 608.47 614.74 608.47 616.59C608.47 618.6 608.47 634.66 608.47 636.67C608.47 638.52 606.97 640.02 605.12 640.02" id="a1yFHsJO4P"></path></defs><g><g><use xlink:href="#b1aoPZuE9L" opacity="1" fill="#62c6ef" fill-opacity="1"></use><g><use xlink:href="#b1aoPZuE9L" opacity="1" fill-opacity="0" stroke="#000000" stroke-width="1" stroke-opacity="0"></use></g></g><g><use xlink:href="#e8z0VYS5" opacity="1" fill="#b4e6f5" fill-opacity="1"></use><g><use xlink:href="#e8z0VYS5" opacity="1" fill-opacity="0" stroke="#000000" stroke-width="1" stroke-opacity="0"></use></g></g><g><use xlink:href="#dRpmUWpv" opacity="1" fill="#b4e6f5" fill-opacity="1"></use><g><use xlink:href="#dRpmUWpv" opacity="1" fill-opacity="0" stroke="#000000" stroke-width="1" stroke-opacity="0"></use></g></g><g><use xlink:href="#c3LKX2aXwz" opacity="1" fill="#b4e6f5" fill-opacity="1"></use><g><use xlink:href="#c3LKX2aXwz" opacity="1" fill-opacity="0" stroke="#000000" stroke-width="1" stroke-opacity="0"></use></g></g><g><use xlink:href="#b9Hwr3oCh" opacity="1" fill="#b4e6f5" fill-opacity="1"></use><g><use xlink:href="#b9Hwr3oCh" opacity="1" fill-opacity="0" stroke="#000000" stroke-width="1" stroke-opacity="0"></use></g></g><g><use xlink:href="#d7EogCq2nW" opacity="1" fill="#b4e6f5" fill-opacity="1"></use><g><use xlink:href="#d7EogCq2nW" opacity="1" fill-opacity="0" stroke="#000000" stroke-width="1" stroke-opacity="0"></use></g></g><g><use xlink:href="#ccaOKDW2n" opacity="1" fill="#b4e6f5" fill-opacity="1"></use><g><use xlink:href="#ccaOKDW2n" opacity="1" fill-opacity="0" stroke="#000000" stroke-width="1" stroke-opacity="0"></use></g></g><g><use xlink:href="#d2sTqXWjcn" opacity="1" fill="#b4e6f5" fill-opacity="1"></use><g><use xlink:href="#d2sTqXWjcn" opacity="1" fill-opacity="0" stroke="#000000" stroke-width="1" stroke-opacity="0"></use></g></g><g><use xlink:href="#b7a5a1twQ" opacity="1" fill="#b4e6f5" fill-opacity="1"></use><g><use xlink:href="#b7a5a1twQ" opacity="1" fill-opacity="0" stroke="#000000" stroke-width="1" stroke-opacity="0"></use></g></g><g><use xlink:href="#eyMpfRjzK" opacity="1" fill="#b4e6f5" fill-opacity="1"></use><g><use xlink:href="#eyMpfRjzK" opacity="1" fill-opacity="0" stroke="#000000" stroke-width="1" stroke-opacity="0"></use></g></g><g><use xlink:href="#bjdsEHsnH" opacity="1" fill="#b4e6f5" fill-opacity="1"></use><g><use xlink:href="#bjdsEHsnH" opacity="1" fill-opacity="0" stroke="#000000" stroke-width="1" stroke-opacity="0"></use></g></g><g><use xlink:href="#a1yFHsJO4P" opacity="1" fill="#b4e6f5" fill-opacity="1"></use><g><use xlink:href="#a1yFHsJO4P" opacity="1" fill-opacity="0" stroke="#000000" stroke-width="1" stroke-opacity="0"></use></g></g></g></svg>