<?xml version="1.0" encoding="UTF-8" standalone="no"?>
<!DOCTYPE svg PUBLIC "-//W3C//DTD SVG 1.1//EN" "http://www.w3.org/Graphics/SVG/1.1/DTD/svg11.dtd">
<svg version="1.1" xmlns="http://www.w3.org/2000/svg" xmlns:xlink="http://www.w3.org/1999/xlink" preserveAspectRatio="xMidYMid meet" viewBox="170.2346623858 534.60002661 177.29199566770012 182.08932888110007" width="173.29" height="178.09"><defs><path d="M305.54 584.94C305.53 584.94 305.51 584.94 305.49 584.94C305.5 584.61 305.54 584.28 305.54 583.94C305.54 557.24 283.9 535.6 257.2 535.6C230.51 535.6 208.86 557.24 208.86 583.94C208.86 583.97 208.87 584 208.87 584.03C187.93 585.01 171.23 602.24 171.23 623.43C171.23 645.23 188.91 662.91 210.72 662.91C220.2 662.91 296.06 662.91 305.54 662.91C327.07 662.91 344.53 645.46 344.53 623.93C344.53 602.4 327.07 584.94 305.54 584.94" id="aJU5YjluP"></path><path d="M228.42 669.64L236.16 683.34L251.58 686.47L240.94 698.06L242.73 713.69L228.42 707.15L214.11 713.69L215.9 698.06L205.26 686.47L220.69 683.34L228.42 669.64" id="b23kJWUlsn"></path><path d="M281.96 620.3L292.11 638.27L312.34 642.37L298.38 657.58L300.73 678.09L281.96 669.51L263.18 678.09L265.54 657.58L251.58 642.37L271.81 638.27L281.96 620.3" id="abilxHGMg"></path></defs><g><g><use xlink:href="#aJU5YjluP" opacity="1" fill="#62c6ef" fill-opacity="1"></use><g><use xlink:href="#aJU5YjluP" opacity="1" fill-opacity="0" stroke="#000000" stroke-width="1" stroke-opacity="0"></use></g></g><g><use xlink:href="#b23kJWUlsn" opacity="1" fill="#b4e6f5" fill-opacity="1"></use><g><use xlink:href="#b23kJWUlsn" opacity="1" fill-opacity="0" stroke="#000000" stroke-width="1" stroke-opacity="0"></use></g></g><g><use xlink:href="#abilxHGMg" opacity="1" fill="#b4e6f5" fill-opacity="1"></use><g><use xlink:href="#abilxHGMg" opacity="1" fill-opacity="0" stroke="#000000" stroke-width="1" stroke-opacity="0"></use></g></g></g></svg>