<?xml version="1.0" encoding="UTF-8" standalone="no"?>
<!DOCTYPE svg PUBLIC "-//W3C//DTD SVG 1.1//EN" "http://www.w3.org/Graphics/SVG/1.1/DTD/svg11.dtd">
<svg version="1.1" xmlns="http://www.w3.org/2000/svg" xmlns:xlink="http://www.w3.org/1999/xlink" preserveAspectRatio="xMidYMid meet" viewBox="44.38818961367633 70.70803823229991 166.2119958447 166.21466251130005" width="166.21" height="166.21"><defs><path d="M167.34 153.27C167.34 175.27 149.5 193.11 127.49 193.11C105.49 193.11 87.64 175.27 87.64 153.27C87.64 131.25 105.49 113.41 127.49 113.41C149.5 113.41 167.34 131.25 167.34 153.27" id="aNWXLFLr"></path><path d="M127.49 102.61C124.72 102.61 122.47 100.36 122.47 97.59C122.47 95.4 122.47 77.92 122.47 75.73C122.47 72.96 124.72 70.71 127.49 70.71C130.27 70.71 132.52 72.96 132.52 75.73C132.52 77.92 132.52 95.4 132.52 97.59C132.52 100.36 130.27 102.61 127.49 102.61" id="dtTzK8gFC"></path><path d="M127.49 236.92C124.72 236.92 122.47 234.67 122.47 231.9C122.47 229.71 122.47 212.23 122.47 210.05C122.47 207.27 124.72 205.02 127.49 205.02C130.27 205.02 132.52 207.27 132.52 210.05C132.52 212.23 132.52 229.71 132.52 231.9C132.52 234.67 130.27 236.92 127.49 236.92" id="a4HDRJdt8j"></path><path d="M205.58 158.84C192.47 158.84 185.18 158.84 183.72 158.84C180.95 158.84 178.7 156.59 178.7 153.81C178.7 151.04 180.95 148.79 183.72 148.79C185.91 148.79 203.39 148.79 205.58 148.79C208.35 148.79 210.6 151.04 210.6 153.81C210.6 156.59 208.35 158.84 205.58 158.84" id="fhE5dqwk0"></path><path d="M49.41 158.84C62.52 158.84 69.81 158.84 71.26 158.84C74.04 158.84 76.29 156.59 76.29 153.81C76.29 151.04 74.04 148.79 71.26 148.79C69.08 148.79 51.6 148.79 49.41 148.79C46.64 148.79 44.39 151.04 44.39 153.81C44.39 156.59 46.64 158.84 49.41 158.84" id="d1BfySDWIP"></path><path d="M87.73 119.08C86.45 119.08 85.16 118.59 84.18 117.61C82.64 116.07 70.27 103.69 68.73 102.15C66.77 100.19 66.77 97.01 68.73 95.05C70.69 93.09 73.87 93.09 75.83 95.05C77.38 96.6 89.74 108.96 91.29 110.51C93.25 112.47 93.25 115.64 91.29 117.61C90.3 118.59 89.02 119.08 87.73 119.08" id="g1l104FiT"></path><path d="M182.71 214.05C181.42 214.05 180.14 213.56 179.16 212.58C177.61 211.04 165.25 198.67 163.7 197.13C161.74 195.17 161.74 191.99 163.7 190.03C165.67 188.06 168.84 188.06 170.81 190.03C172.35 191.57 184.71 203.93 186.26 205.48C188.22 207.44 188.22 210.62 186.26 212.58C185.28 213.56 183.99 214.05 182.71 214.05" id="e3avfCQIfj"></path><path d="M72.28 214.05C71 214.05 69.71 213.56 68.73 212.58C66.77 210.62 66.77 207.44 68.73 205.48C70.27 203.93 82.64 191.57 84.18 190.03C86.15 188.06 89.32 188.06 91.29 190.03C93.25 191.99 93.25 195.17 91.29 197.13C89.74 198.67 77.38 211.04 75.83 212.58C74.85 213.56 73.57 214.05 72.28 214.05" id="afSaOdJGy"></path><path d="M167.25 119.08C165.97 119.08 164.68 118.59 163.7 117.61C161.74 115.64 161.74 112.47 163.7 110.51C165.25 108.96 177.61 96.6 179.16 95.05C181.11 93.09 184.3 93.09 186.26 95.05C188.22 97.01 188.22 100.19 186.26 102.15C184.71 103.69 172.35 116.07 170.81 117.61C169.83 118.59 168.54 119.08 167.25 119.08" id="e4IUIx0N3"></path></defs><g><g><g><use xlink:href="#aNWXLFLr" opacity="1" fill="#f8a62c" fill-opacity="1"></use><g><use xlink:href="#aNWXLFLr" opacity="1" fill-opacity="0" stroke="#000000" stroke-width="1" stroke-opacity="0"></use></g></g><g><use xlink:href="#dtTzK8gFC" opacity="1" fill="#f8a62c" fill-opacity="1"></use><g><use xlink:href="#dtTzK8gFC" opacity="1" fill-opacity="0" stroke="#000000" stroke-width="1" stroke-opacity="0"></use></g></g><g><use xlink:href="#a4HDRJdt8j" opacity="1" fill="#f8a62c" fill-opacity="1"></use><g><use xlink:href="#a4HDRJdt8j" opacity="1" fill-opacity="0" stroke="#000000" stroke-width="1" stroke-opacity="0"></use></g></g><g><use xlink:href="#fhE5dqwk0" opacity="1" fill="#f8a62c" fill-opacity="1"></use><g><use xlink:href="#fhE5dqwk0" opacity="1" fill-opacity="0" stroke="#000000" stroke-width="1" stroke-opacity="0"></use></g></g><g><use xlink:href="#d1BfySDWIP" opacity="1" fill="#f8a62c" fill-opacity="1"></use><g><use xlink:href="#d1BfySDWIP" opacity="1" fill-opacity="0" stroke="#000000" stroke-width="1" stroke-opacity="0"></use></g></g><g><use xlink:href="#g1l104FiT" opacity="1" fill="#f8a62c" fill-opacity="1"></use><g><use xlink:href="#g1l104FiT" opacity="1" fill-opacity="0" stroke="#000000" stroke-width="1" stroke-opacity="0"></use></g></g><g><use xlink:href="#e3avfCQIfj" opacity="1" fill="#f8a62c" fill-opacity="1"></use><g><use xlink:href="#e3avfCQIfj" opacity="1" fill-opacity="0" stroke="#000000" stroke-width="1" stroke-opacity="0"></use></g></g><g><use xlink:href="#afSaOdJGy" opacity="1" fill="#f8a62c" fill-opacity="1"></use><g><use xlink:href="#afSaOdJGy" opacity="1" fill-opacity="0" stroke="#000000" stroke-width="1" stroke-opacity="0"></use></g></g><g><use xlink:href="#e4IUIx0N3" opacity="1" fill="#f8a62c" fill-opacity="1"></use><g><use xlink:href="#e4IUIx0N3" opacity="1" fill-opacity="0" stroke="#000000" stroke-width="1" stroke-opacity="0"></use></g></g></g></g></svg>